<svg width="64" height="64" viewBox="0 0 64 64" fill="none" xmlns="http://www.w3.org/2000/svg">
<path d="M32 4C24.6018 4.08977 17.5319 7.06858 12.3003 12.3003C7.06858 17.5319 4.08977 24.6018 4 32C4.08977 39.3982 7.06858 46.468 12.3003 51.6997C17.5319 56.9314 24.6018 59.9102 32 60C39.3982 59.9102 46.468 56.9314 51.6997 51.6997C56.9314 46.468 59.9102 39.3982 60 32C59.9102 24.6018 56.9314 17.5319 51.6997 12.3003C46.468 7.06858 39.3982 4.08977 32 4ZM48 34H34V48H30V34H16V30H30V16H34V30H48V34Z" fill="#445D67"/>
</svg>
